<svg version="1.1" id="Layer_1" xmlns="http://www.w3.org/2000/svg" xmlns:xlink="http://www.w3.org/1999/xlink" x="0px" y="0px"
	 width="100%" viewBox="0 0 1090 1090" enable-background="new 0 0 1090 1090" xml:space="preserve">
<path fill="#2D5D2A" opacity="1.000000" stroke="none" 
	d="
M1.000000,1083.000000 
	C1.000000,724.635742 1.000000,366.271515 1.453632,7.454123 
	C364.938171,7.000655 727.969116,7.000328 1091.000000,7.000000 
	C1091.000000,365.364258 1091.000000,723.728516 1090.544067,1082.550171 
	C727.058777,1083.005005 364.029388,1083.002563 1.000000,1083.000000 
M580.858215,547.500000 
	C580.858215,556.788269 580.858215,566.076599 580.858215,575.643677 
	C607.769775,575.643677 634.162170,575.643677 661.141418,575.643677 
	C661.141418,551.571716 661.141418,527.701111 661.141418,503.241028 
	C664.194458,503.241028 666.709473,503.535522 669.133789,503.191101 
	C680.972717,501.509186 693.064636,500.705780 704.559082,497.668915 
	C739.729614,488.376617 765.444031,467.543396 778.488831,432.893066 
	C786.629822,411.268677 788.101074,388.790771 785.181274,365.952240 
	C782.231140,342.876801 772.934326,322.843292 756.512268,306.291626 
	C743.132996,292.806763 726.997620,283.620026 709.337280,277.018372 
	C679.627869,265.912567 648.630615,262.238159 617.174255,261.540894 
	C605.241272,261.276367 593.297485,261.497894 580.858215,261.497894 
	C580.858215,357.280823 580.858215,451.890411 580.858215,547.500000 
M371.967072,380.489655 
	C351.039917,445.463684 330.112793,510.437714 309.019073,575.928894 
	C336.531342,575.928894 363.171753,575.876160 389.811371,575.998474 
	C392.987671,576.013000 393.167603,574.025635 393.730042,571.966797 
	C396.794128,560.749878 399.860077,549.533569 402.861206,538.552002 
	C403.576508,538.301697 403.887299,538.098083 404.198456,538.097534 
	C427.021484,538.057129 449.845032,537.975708 472.666382,538.159302 
	C473.936920,538.169556 475.860779,540.157288 476.342560,541.603638 
	C479.600952,551.386169 482.776672,561.209717 485.488922,571.153687 
	C486.518707,574.929199 488.105530,576.050354 491.953033,576.022644 
	C516.608398,575.845032 541.265625,575.931946 565.922241,575.932007 
	C567.517639,575.932007 569.112976,575.932068 571.184021,575.932068 
	C570.558655,573.520081 570.163818,571.756714 569.644165,570.030823 
	C565.760315,557.131226 561.826721,544.246582 557.955261,531.343262 
	C532.284851,445.786255 506.587311,360.237366 481.079712,274.631836 
	C479.821442,270.408997 477.940735,269.419403 474.069641,270.204712 
	C451.915436,274.699066 429.759583,279.187103 407.576752,283.536926 
	C403.992645,284.239716 402.411530,286.093384 401.320129,289.515381 
	C391.718018,319.621307 381.918121,349.664185 371.967072,380.489655 
M905.714294,555.839050 
	C907.006409,561.179626 908.504883,566.481628 909.513977,571.875122 
	C910.129761,575.166199 911.602905,576.027710 914.858276,576.008911 
	C939.351135,575.867676 963.845215,575.935791 988.338867,575.918823 
	C989.437622,575.918091 990.536255,575.728821 991.919128,575.601135 
	C991.500732,574.018677 991.228516,572.736206 990.824463,571.496826 
	C965.918152,495.100372 941.027222,418.698914 915.962708,342.354401 
	C915.186401,339.989807 912.992554,337.530396 910.796387,336.279327 
	C890.291382,324.598297 868.304077,316.494263 845.692261,309.983154 
	C844.630493,309.677460 843.484741,309.663544 842.172607,309.485931 
	C807.951416,398.278717 773.823364,486.829712 739.483948,575.929138 
	C765.720764,575.929138 791.036682,575.972351 816.351135,575.800720 
	C817.607361,575.792236 819.455566,574.167847 820.000793,572.865662 
	C823.212341,565.195312 826.247253,557.443542 829.066040,549.619873 
	C830.210815,546.442688 831.921814,545.457458 835.300110,545.488525 
	C854.626831,545.666321 873.955994,545.574890 893.284363,545.574890 
	C903.144958,545.574890 903.144958,545.574890 905.714294,555.839050 
M195.234802,331.752228 
	C180.900375,338.774902 166.599854,345.868347 152.205566,352.766052 
	C148.967834,354.317566 148.264603,356.526245 148.268661,359.874908 
	C148.353561,430.041443 148.332779,500.208099 148.332764,570.374756 
	C148.332764,572.138977 148.332748,573.903198 148.332748,575.546814 
	C174.501007,575.546814 199.897202,575.546814 225.667465,575.546814 
	C225.667465,559.852722 225.754044,544.541748 225.597824,529.233215 
	C225.564743,525.991699 226.541336,524.691345 229.773178,523.856079 
	C253.703308,517.671509 276.085693,507.998108 295.781128,492.850616 
	C328.664978,467.560059 346.418457,434.709015 344.886536,392.544586 
	C344.277527,375.782410 340.752045,359.749786 330.666351,345.924225 
	C316.968994,327.147858 297.404449,319.527374 275.032501,317.833160 
	C247.550507,315.751953 221.408356,321.763336 195.234802,331.752228 
M243.059418,680.573669 
	C232.402634,714.783569 233.865234,748.137695 251.898895,779.553833 
	C286.571991,839.957153 369.133301,843.807190 413.594238,808.953979 
	C441.502777,787.076355 453.910980,757.571045 454.609955,722.726257 
	C455.140350,696.283508 448.567352,671.826355 432.102386,650.740906 
	C411.376709,624.199036 383.438812,611.980347 350.230316,610.329529 
	C301.617645,607.912903 260.520355,634.485901 243.059418,680.573669 
M785.306763,823.717529 
	C787.080933,824.282654 788.849365,825.315430 790.630249,825.337402 
	C802.456726,825.483337 814.285889,825.412781 826.114136,825.412720 
	C830.043884,825.412720 833.973633,825.412720 837.910522,825.412720 
	C837.910522,755.221619 837.910522,685.691284 837.910522,616.252258 
	C816.702271,616.252258 795.820923,616.252258 774.420166,616.252258 
	C774.420166,646.306091 774.420166,675.957153 774.420166,706.926758 
	C772.981628,704.637085 772.251770,703.556580 771.602417,702.429749 
	C755.977356,675.316833 740.248108,648.262695 724.864014,621.013672 
	C722.543152,616.902771 720.006897,615.661682 715.521729,615.753540 
	C702.033203,616.029968 688.535339,615.852539 675.041138,615.852112 
	C672.258972,615.852051 669.476868,615.852173 666.546265,615.852173 
	C666.546265,685.926758 666.546265,755.461792 666.546265,825.161987 
	C687.966492,825.161987 709.066772,825.161987 730.817749,825.161987 
	C730.817749,796.433838 730.817749,767.947937 730.817749,739.461975 
	C731.162720,739.383972 731.507751,739.305969 731.852722,739.227966 
	C749.537292,767.157227 767.221863,795.086426 785.306763,823.717529 
M496.499512,825.415283 
	C508.624084,825.415283 520.748657,825.415283 533.372131,825.415283 
	C533.372131,799.958374 533.372131,775.031372 533.372131,750.084595 
	C548.102600,750.084595 562.323120,750.084595 577.060791,750.084595 
	C577.060791,775.350525 577.060791,800.234009 577.060791,825.023682 
	C599.822754,825.023682 622.058960,825.023682 644.273315,825.023682 
	C644.273315,755.178955 644.273315,685.726196 644.273315,616.101929 
	C621.767822,616.101929 599.520386,616.101929 576.705444,616.101929 
	C576.705444,640.401550 576.705444,664.453613 576.705444,688.594360 
	C562.045166,688.594360 547.954285,688.594360 533.265259,688.594360 
	C533.265259,664.289734 533.265259,640.243103 533.265259,616.180298 
	C510.432892,616.180298 488.201996,616.180298 465.924744,616.180298 
	C465.924744,685.968628 465.924744,755.424377 465.924744,825.415222 
	C475.914734,825.415222 485.707092,825.415222 496.499512,825.415283 
M887.470703,736.051941 
	C895.540283,739.991943 903.662598,743.828430 911.662598,747.904907 
	C918.010681,751.139709 924.689941,754.022827 930.346191,758.237671 
	C936.743591,763.004700 935.168701,771.384521 927.573975,773.896973 
	C923.144653,775.362183 917.872253,776.262451 913.426697,775.315613 
	C901.124390,772.695435 888.855347,769.559326 876.969299,765.474243 
	C869.313293,762.843018 862.356201,758.178101 854.919495,754.338806 
	C854.919495,772.234070 855.063538,790.056030 854.810608,807.872437 
	C854.752747,811.947998 855.963501,814.335205 859.601135,815.981018 
	C890.559875,829.988037 922.562805,833.939392 955.457642,824.663208 
	C972.617432,819.824280 986.159058,809.473206 993.920532,792.867432 
	C1010.290894,757.842834 997.839355,720.049744 963.779785,701.968201 
	C954.103943,696.831421 943.806885,692.877136 933.943115,688.075745 
	C930.104614,686.207153 926.216370,683.977783 923.164551,681.061340 
	C918.171021,676.289429 919.730347,669.431580 926.288879,667.140442 
	C929.783813,665.919556 933.985718,665.106628 937.499146,665.851562 
	C948.988403,668.287598 960.444641,671.090759 971.638062,674.625305 
	C977.656982,676.526001 983.112976,680.209167 989.275696,683.316284 
	C989.275696,666.118591 988.984863,649.317932 989.442322,632.537659 
	C989.591370,627.071899 987.536987,624.459534 982.991760,622.362549 
	C958.839539,611.219788 933.667603,607.306213 907.521729,612.458740 
	C889.614868,615.987671 874.353516,624.442322 864.243835,640.334351 
	C843.537354,672.884155 853.412354,714.364136 887.470703,736.051941 
M157.934113,674.500000 
	C157.934006,699.981384 157.950150,725.462708 157.927353,750.944092 
	C157.914764,764.999634 151.551361,771.599854 137.408279,771.232544 
	C130.342911,771.049011 123.312988,769.500488 116.137383,768.552307 
	C116.114182,768.634155 115.865334,769.103882 115.864464,769.574158 
	C115.831741,787.227417 115.898071,804.881470 115.735909,822.533447 
	C115.708023,825.568787 117.467270,826.064697 119.591904,826.671082 
	C136.048965,831.367065 152.723160,832.181335 169.541748,829.179260 
	C194.053284,824.803894 210.827881,811.156982 219.327820,787.505066 
	C223.492554,775.916382 225.399323,763.957153 225.453491,751.760925 
	C225.650986,707.295410 225.612488,662.828857 225.637115,618.362671 
	C225.637543,617.600952 225.313736,616.839111 225.174789,616.225586 
	C202.662933,616.225586 180.438660,616.225586 157.934097,616.225586 
	C157.934097,635.569763 157.934097,654.534912 157.934113,674.500000 
M958.661682,389.232178 
	C948.436218,410.533966 960.321594,433.611847 983.163147,436.806854 
	C997.915649,438.870392 1012.232544,431.418762 1018.381104,418.476440 
	C1024.583496,405.421082 1021.408875,390.204468 1010.392639,380.185730 
	C995.016052,366.201416 970.910767,370.131775 958.661682,389.232178 
z"/>
<path fill="#373C39" opacity="1.000000" stroke="none" 
	d="
M1.000000,1083.416626 
	C364.029388,1083.002563 727.058777,1083.005005 1090.544067,1083.003784 
	C1091.000000,1084.388916 1091.000000,1085.777832 1090.546387,1087.666260 
	C1089.426392,1088.175903 1088.760010,1088.195190 1088.093750,1088.195190 
	C727.223511,1088.196655 366.353241,1088.197266 5.482987,1088.188965 
	C3.988657,1088.188965 2.494330,1088.065674 1.000001,1088.000000 
	C1.000000,1086.611084 1.000000,1085.222168 1.000000,1083.416626 
z"/>
<path fill="#474849" opacity="1.000000" stroke="none" 
	d="
M1091.000000,6.583334 
	C727.969116,7.000328 364.938171,7.000655 1.453632,7.000491 
	C1.000000,5.611111 1.000000,4.222221 1.451200,2.514790 
	C2.568646,2.208028 3.234891,2.230131 3.901136,2.230134 
	C364.775146,2.231780 725.649170,2.232214 1086.523193,2.222539 
	C1088.015503,2.222499 1089.507690,2.077369 1091.000000,2.000000 
	C1091.000000,3.388889 1091.000000,4.777779 1091.000000,6.583334 
z"/>
<path fill="#E6E6E6" opacity="1.000000" stroke="none" 
	d="
M1.000001,1088.500000 
	C2.494330,1088.065674 3.988657,1088.188965 5.482987,1088.188965 
	C366.353241,1088.197266 727.223511,1088.196655 1088.093750,1088.195190 
	C1088.760010,1088.195190 1089.426392,1088.175903 1090.546387,1088.082764 
	C1091.000000,1088.999512 1091.000000,1089.999146 1091.000000,1090.999268 
	C728.999023,1091.000000 366.998016,1091.002686 4.997075,1090.898193 
	C3.743600,1090.897827 0.685991,1092.956909 1.000001,1088.500000 
z"/>
<path fill="#FFFFFF" opacity="1.000000" stroke="none" 
	d="
M1091.000000,1.500000 
	C1089.507690,2.077369 1088.015503,2.222499 1086.523193,2.222539 
	C725.649170,2.232214 364.775146,2.231780 3.901136,2.230134 
	C3.234891,2.230131 2.568646,2.208028 1.451200,2.098124 
	C1.166667,1.666667 1.315919,1.056198 1.502793,1.044456 
	C2.830883,0.961004 4.166667,1.000000 5.500000,1.000000 
	C367.333344,1.000000 729.166687,1.000000 1091.000000,1.500000 
z"/>
<path fill="#FEFEFE" opacity="1.000000" stroke="none" 
	d="
M580.858215,547.000000 
	C580.858215,451.890411 580.858215,357.280823 580.858215,261.497894 
	C593.297485,261.497894 605.241272,261.276367 617.174255,261.540894 
	C648.630615,262.238159 679.627869,265.912567 709.337280,277.018372 
	C726.997620,283.620026 743.132996,292.806763 756.512268,306.291626 
	C772.934326,322.843292 782.231140,342.876801 785.181274,365.952240 
	C788.101074,388.790771 786.629822,411.268677 778.488831,432.893066 
	C765.444031,467.543396 739.729614,488.376617 704.559082,497.668915 
	C693.064636,500.705780 680.972717,501.509186 669.133789,503.191101 
	C666.709473,503.535522 664.194458,503.241028 661.141418,503.241028 
	C661.141418,527.701111 661.141418,551.571716 661.141418,575.643677 
	C634.162170,575.643677 607.769775,575.643677 580.858215,575.643677 
	C580.858215,566.076599 580.858215,556.788269 580.858215,547.000000 
M703.031067,384.534393 
	C702.526855,360.874939 687.247192,347.347168 660.031982,346.718719 
	C660.031982,373.770386 660.031982,400.815155 660.031982,428.141785 
	C661.467590,428.141785 662.603333,428.193298 663.733215,428.134186 
	C686.913696,426.922089 702.453125,410.047394 703.031067,384.534393 
z"/>
<path fill="#FEFEFE" opacity="1.000000" stroke="none" 
	d="
M372.071960,380.107666 
	C381.918121,349.664185 391.718018,319.621307 401.320129,289.515381 
	C402.411530,286.093384 403.992645,284.239716 407.576752,283.536926 
	C429.759583,279.187103 451.915436,274.699066 474.069641,270.204712 
	C477.940735,269.419403 479.821442,270.408997 481.079712,274.631836 
	C506.587311,360.237366 532.284851,445.786255 557.955261,531.343262 
	C561.826721,544.246582 565.760315,557.131226 569.644165,570.030823 
	C570.163818,571.756714 570.558655,573.520081 571.184021,575.932068 
	C569.112976,575.932068 567.517639,575.932007 565.922241,575.932007 
	C541.265625,575.931946 516.608398,575.845032 491.953033,576.022644 
	C488.105530,576.050354 486.518707,574.929199 485.488922,571.153687 
	C482.776672,561.209717 479.600952,551.386169 476.342560,541.603638 
	C475.860779,540.157288 473.936920,538.169556 472.666382,538.159302 
	C449.845032,537.975708 427.021484,538.057129 404.198456,538.097534 
	C403.887299,538.098083 403.576508,538.301697 402.861206,538.552002 
	C399.860077,549.533569 396.794128,560.749878 393.730042,571.966797 
	C393.167603,574.025635 392.987671,576.013000 389.811371,575.998474 
	C363.171753,575.876160 336.531342,575.928894 309.019073,575.928894 
	C330.112793,510.437714 351.039917,445.463684 372.071960,380.107666 
M440.812256,396.322235 
	C434.695923,421.436279 428.579590,446.550354 422.384857,471.986267 
	C434.972168,471.986267 446.876953,471.986267 458.934204,471.986267 
	C458.934204,471.089508 459.044495,470.432526 458.918335,469.824646 
	C453.853363,445.422821 448.774780,421.023804 443.652557,396.633972 
	C443.463837,395.735443 442.821075,394.932251 442.389954,394.084656 
	C441.913605,394.565643 441.437286,395.046631 440.812256,396.322235 
z"/>
<path fill="#FEFEFE" opacity="1.000000" stroke="none" 
	d="
M905.566162,555.455627 
	C903.144958,545.574890 903.144958,545.574890 893.284363,545.574890 
	C873.955994,545.574890 854.626831,545.666321 835.300110,545.488525 
	C831.921814,545.457458 830.210815,546.442688 829.066040,549.619873 
	C826.247253,557.443542 823.212341,565.195312 820.000793,572.865662 
	C819.455566,574.167847 817.607361,575.792236 816.351135,575.800720 
	C791.036682,575.972351 765.720764,575.929138 739.483948,575.929138 
	C773.823364,486.829712 807.951416,398.278717 842.172607,309.485931 
	C843.484741,309.663544 844.630493,309.677460 845.692261,309.983154 
	C868.304077,316.494263 890.291382,324.598297 910.796387,336.279327 
	C912.992554,337.530396 915.186401,339.989807 915.962708,342.354401 
	C941.027222,418.698914 965.918152,495.100372 990.824463,571.496826 
	C991.228516,572.736206 991.500732,574.018677 991.919128,575.601135 
	C990.536255,575.728821 989.437622,575.918091 988.338867,575.918823 
	C963.845215,575.935791 939.351135,575.867676 914.858276,576.008911 
	C911.602905,576.027710 910.129761,575.166199 909.513977,571.875122 
	C908.504883,566.481628 907.006409,561.179626 905.566162,555.455627 
M866.225830,433.660370 
	C860.890259,450.549622 855.554749,467.438873 850.104675,484.690552 
	C862.184814,484.690552 873.587402,484.690552 885.726501,484.690552 
	C880.750061,463.175629 875.864502,442.053772 870.979004,420.931915 
	C870.705750,420.965149 870.432556,420.998383 870.159363,421.031616 
	C868.931641,424.987610 867.703918,428.943604 866.225830,433.660370 
z"/>
<path fill="#FEFEFE" opacity="1.000000" stroke="none" 
	d="
M195.568588,331.560303 
	C221.408356,321.763336 247.550507,315.751953 275.032501,317.833160 
	C297.404449,319.527374 316.968994,327.147858 330.666351,345.924225 
	C340.752045,359.749786 344.277527,375.782410 344.886536,392.544586 
	C346.418457,434.709015 328.664978,467.560059 295.781128,492.850616 
	C276.085693,507.998108 253.703308,517.671509 229.773178,523.856079 
	C226.541336,524.691345 225.564743,525.991699 225.597824,529.233215 
	C225.754044,544.541748 225.667465,559.852722 225.667465,575.546814 
	C199.897202,575.546814 174.501007,575.546814 148.332748,575.546814 
	C148.332748,573.903198 148.332764,572.138977 148.332764,570.374756 
	C148.332779,500.208099 148.353561,430.041443 148.268661,359.874908 
	C148.264603,356.526245 148.967834,354.317566 152.205566,352.766052 
	C166.599854,345.868347 180.900375,338.774902 195.568588,331.560303 
M225.657120,445.473022 
	C225.657120,448.378723 225.657120,451.284424 225.657120,454.804047 
	C235.758743,451.414001 244.162292,446.830322 251.638428,440.662872 
	C263.617126,430.780914 267.697357,417.728851 265.836029,402.699463 
	C264.407196,391.162598 256.639954,384.697601 245.175720,385.976715 
	C239.852097,386.570679 234.726685,388.950684 229.514664,390.531708 
	C226.262558,391.518188 225.546448,393.757751 225.581116,397.022095 
	C225.749130,412.839325 225.656998,428.659332 225.657120,445.473022 
z"/>
<path fill="#FEFEFE" opacity="1.000000" stroke="none" 
	d="
M243.169800,680.196655 
	C260.520355,634.485901 301.617645,607.912903 350.230316,610.329529 
	C383.438812,611.980347 411.376709,624.199036 432.102386,650.740906 
	C448.567352,671.826355 455.140350,696.283508 454.609955,722.726257 
	C453.910980,757.571045 441.502777,787.076355 413.594238,808.953979 
	C369.133301,843.807190 286.571991,839.957153 251.898895,779.553833 
	C233.865234,748.137695 232.402634,714.783569 243.169800,680.196655 
M327.445770,766.149658 
	C348.710510,776.034058 372.493103,768.294067 381.607971,747.656128 
	C389.279327,730.286621 389.162720,712.200806 382.127716,694.606079 
	C370.043365,664.382935 328.570129,664.246948 313.378143,687.131775 
	C305.972321,698.287659 303.598999,710.828003 304.342010,723.842773 
	C305.328979,741.130066 310.182404,756.714966 327.445770,766.149658 
z"/>
<path fill="#FEFEFE" opacity="1.000000" stroke="none" 
	d="
M785.106567,823.366577 
	C767.221863,795.086426 749.537292,767.157227 731.852722,739.227966 
	C731.507751,739.305969 731.162720,739.383972 730.817749,739.461975 
	C730.817749,767.947937 730.817749,796.433838 730.817749,825.161987 
	C709.066772,825.161987 687.966492,825.161987 666.546265,825.161987 
	C666.546265,755.461792 666.546265,685.926758 666.546265,615.852173 
	C669.476868,615.852173 672.258972,615.852051 675.041138,615.852112 
	C688.535339,615.852539 702.033203,616.029968 715.521729,615.753540 
	C720.006897,615.661682 722.543152,616.902771 724.864014,621.013672 
	C740.248108,648.262695 755.977356,675.316833 771.602417,702.429749 
	C772.251770,703.556580 772.981628,704.637085 774.420166,706.926758 
	C774.420166,675.957153 774.420166,646.306091 774.420166,616.252258 
	C795.820923,616.252258 816.702271,616.252258 837.910522,616.252258 
	C837.910522,685.691284 837.910522,755.221619 837.910522,825.412720 
	C833.973633,825.412720 830.043884,825.412720 826.114136,825.412720 
	C814.285889,825.412781 802.456726,825.483337 790.630249,825.337402 
	C788.849365,825.315430 787.080933,824.282654 785.106567,823.366577 
z"/>
<path fill="#FEFEFE" opacity="1.000000" stroke="none" 
	d="
M495.999512,825.415283 
	C485.707092,825.415222 475.914734,825.415222 465.924744,825.415222 
	C465.924744,755.424377 465.924744,685.968628 465.924744,616.180298 
	C488.201996,616.180298 510.432892,616.180298 533.265259,616.180298 
	C533.265259,640.243103 533.265259,664.289734 533.265259,688.594360 
	C547.954285,688.594360 562.045166,688.594360 576.705444,688.594360 
	C576.705444,664.453613 576.705444,640.401550 576.705444,616.101929 
	C599.520386,616.101929 621.767822,616.101929 644.273315,616.101929 
	C644.273315,685.726196 644.273315,755.178955 644.273315,825.023682 
	C622.058960,825.023682 599.822754,825.023682 577.060791,825.023682 
	C577.060791,800.234009 577.060791,775.350525 577.060791,750.084595 
	C562.323120,750.084595 548.102600,750.084595 533.372131,750.084595 
	C533.372131,775.031372 533.372131,799.958374 533.372131,825.415283 
	C520.748657,825.415283 508.624084,825.415283 495.999512,825.415283 
z"/>
<path fill="#FEFEFE" opacity="1.000000" stroke="none" 
	d="
M887.152466,735.874512 
	C853.412354,714.364136 843.537354,672.884155 864.243835,640.334351 
	C874.353516,624.442322 889.614868,615.987671 907.521729,612.458740 
	C933.667603,607.306213 958.839539,611.219788 982.991760,622.362549 
	C987.536987,624.459534 989.591370,627.071899 989.442322,632.537659 
	C988.984863,649.317932 989.275696,666.118591 989.275696,683.316284 
	C983.112976,680.209167 977.656982,676.526001 971.638062,674.625305 
	C960.444641,671.090759 948.988403,668.287598 937.499146,665.851562 
	C933.985718,665.106628 929.783813,665.919556 926.288879,667.140442 
	C919.730347,669.431580 918.171021,676.289429 923.164551,681.061340 
	C926.216370,683.977783 930.104614,686.207153 933.943115,688.075745 
	C943.806885,692.877136 954.103943,696.831421 963.779785,701.968201 
	C997.839355,720.049744 1010.290894,757.842834 993.920532,792.867432 
	C986.159058,809.473206 972.617432,819.824280 955.457642,824.663208 
	C922.562805,833.939392 890.559875,829.988037 859.601135,815.981018 
	C855.963501,814.335205 854.752747,811.947998 854.810608,807.872437 
	C855.063538,790.056030 854.919495,772.234070 854.919495,754.338806 
	C862.356201,758.178101 869.313293,762.843018 876.969299,765.474243 
	C888.855347,769.559326 901.124390,772.695435 913.426697,775.315613 
	C917.872253,776.262451 923.144653,775.362183 927.573975,773.896973 
	C935.168701,771.384521 936.743591,763.004700 930.346191,758.237671 
	C924.689941,754.022827 918.010681,751.139709 911.662598,747.904907 
	C903.662598,743.828430 895.540283,739.991943 887.152466,735.874512 
z"/>
<path fill="#FDFEFD" opacity="1.000000" stroke="none" 
	d="
M157.934113,674.000000 
	C157.934097,654.534912 157.934097,635.569763 157.934097,616.225586 
	C180.438660,616.225586 202.662933,616.225586 225.174789,616.225586 
	C225.313736,616.839111 225.637543,617.600952 225.637115,618.362671 
	C225.612488,662.828857 225.650986,707.295410 225.453491,751.760925 
	C225.399323,763.957153 223.492554,775.916382 219.327820,787.505066 
	C210.827881,811.156982 194.053284,824.803894 169.541748,829.179260 
	C152.723160,832.181335 136.048965,831.367065 119.591904,826.671082 
	C117.467270,826.064697 115.708023,825.568787 115.735909,822.533447 
	C115.898071,804.881470 115.831741,787.227417 115.864464,769.574158 
	C115.865334,769.103882 116.114182,768.634155 116.137383,768.552307 
	C123.312988,769.500488 130.342911,771.049011 137.408279,771.232544 
	C151.551361,771.599854 157.914764,764.999634 157.927353,750.944092 
	C157.950150,725.462708 157.934006,699.981384 157.934113,674.000000 
z"/>
<path fill="#EBF0EB" opacity="1.000000" stroke="none" 
	d="
M958.829102,388.899017 
	C970.910767,370.131775 995.016052,366.201416 1010.392639,380.185730 
	C1021.408875,390.204468 1024.583496,405.421082 1018.381104,418.476440 
	C1012.232544,431.418762 997.915649,438.870392 983.163147,436.806854 
	C960.321594,433.611847 948.436218,410.533966 958.829102,388.899017 
M965.508423,386.067871 
	C955.893921,398.548492 956.863525,415.073914 967.820984,425.481964 
	C978.358032,435.490601 995.766479,435.965973 1007.156128,426.556183 
	C1018.216248,417.418549 1020.582153,400.742340 1012.690918,388.598755 
	C1001.698303,371.682648 976.293823,372.191254 965.508423,386.067871 
z"/>
<path fill="#2F5E2C" opacity="1.000000" stroke="none" 
	d="
M703.031067,385.004333 
	C702.453125,410.047394 686.913696,426.922089 663.733215,428.134186 
	C662.603333,428.193298 661.467590,428.141785 660.031982,428.141785 
	C660.031982,400.815155 660.031982,373.770386 660.031982,346.718719 
	C687.247192,347.347168 702.526855,360.874939 703.031067,385.004333 
z"/>
<path fill="#31602E" opacity="1.000000" stroke="none" 
	d="
M440.886597,395.924927 
	C441.437286,395.046631 441.913605,394.565643 442.389954,394.084656 
	C442.821075,394.932251 443.463837,395.735443 443.652557,396.633972 
	C448.774780,421.023804 453.853363,445.422821 458.918335,469.824646 
	C459.044495,470.432526 458.934204,471.089508 458.934204,471.986267 
	C446.876953,471.986267 434.972168,471.986267 422.384857,471.986267 
	C428.579590,446.550354 434.695923,421.436279 440.886597,395.924927 
z"/>
<path fill="#336130" opacity="1.000000" stroke="none" 
	d="
M866.351074,433.279968 
	C867.703918,428.943604 868.931641,424.987610 870.159363,421.031616 
	C870.432556,420.998383 870.705750,420.965149 870.979004,420.931915 
	C875.864502,442.053772 880.750061,463.175629 885.726501,484.690552 
	C873.587402,484.690552 862.184814,484.690552 850.104675,484.690552 
	C855.554749,467.438873 860.890259,450.549622 866.351074,433.279968 
z"/>
<path fill="#305F2D" opacity="1.000000" stroke="none" 
	d="
M225.657104,444.975677 
	C225.656998,428.659332 225.749130,412.839325 225.581116,397.022095 
	C225.546448,393.757751 226.262558,391.518188 229.514664,390.531708 
	C234.726685,388.950684 239.852097,386.570679 245.175720,385.976715 
	C256.639954,384.697601 264.407196,391.162598 265.836029,402.699463 
	C267.697357,417.728851 263.617126,430.780914 251.638428,440.662872 
	C244.162292,446.830322 235.758743,451.414001 225.657120,454.804047 
	C225.657120,451.284424 225.657120,448.378723 225.657104,444.975677 
z"/>
<path fill="#2F5E2C" opacity="1.000000" stroke="none" 
	d="
M327.101440,766.002625 
	C310.182404,756.714966 305.328979,741.130066 304.342010,723.842773 
	C303.598999,710.828003 305.972321,698.287659 313.378143,687.131775 
	C328.570129,664.246948 370.043365,664.382935 382.127716,694.606079 
	C389.162720,712.200806 389.279327,730.286621 381.607971,747.656128 
	C372.493103,768.294067 348.710510,776.034058 327.101440,766.002625 
z"/>
<path fill="#346231" opacity="1.000000" stroke="none" 
	d="
M965.750793,385.799805 
	C976.293823,372.191254 1001.698303,371.682648 1012.690918,388.598755 
	C1020.582153,400.742340 1018.216248,417.418549 1007.156128,426.556183 
	C995.766479,435.965973 978.358032,435.490601 967.820984,425.481964 
	C956.863525,415.073914 955.893921,398.548492 965.750793,385.799805 
M1005.103394,418.707184 
	C1002.380981,415.355530 999.658569,412.003876 996.908997,408.618774 
	C997.309875,408.158966 997.562439,407.701996 997.948853,407.451263 
	C1003.041199,404.147949 1004.865051,399.542999 1003.354004,393.690735 
	C1001.816101,387.734436 997.160522,385.572327 991.737244,385.188324 
	C986.000183,384.782043 980.211975,385.097137 974.367798,385.097137 
	C974.367798,397.649139 974.367798,409.835510 974.367798,421.860443 
	C977.669800,421.860443 980.585999,421.860443 983.614502,421.860443 
	C983.814941,417.693878 983.998474,413.877960 984.182007,410.062042 
	C984.703125,409.853424 985.224243,409.644806 985.745361,409.436188 
	C987.897156,412.031769 990.078918,414.603088 992.194458,417.227905 
	C996.630737,422.732208 1000.010132,423.677734 1007.153198,421.241608 
	C1006.624329,420.557373 1006.128845,419.916382 1005.103394,418.707184 
z"/>
<path fill="#F7F9F7" opacity="1.000000" stroke="none" 
	d="
M1005.368408,418.991272 
	C1006.128845,419.916382 1006.624329,420.557373 1007.153198,421.241608 
	C1000.010132,423.677734 996.630737,422.732208 992.194458,417.227905 
	C990.078918,414.603088 987.897156,412.031769 985.745361,409.436188 
	C985.224243,409.644806 984.703125,409.853424 984.182007,410.062042 
	C983.998474,413.877960 983.814941,417.693878 983.614502,421.860443 
	C980.585999,421.860443 977.669800,421.860443 974.367798,421.860443 
	C974.367798,409.835510 974.367798,397.649139 974.367798,385.097137 
	C980.211975,385.097137 986.000183,384.782043 991.737244,385.188324 
	C997.160522,385.572327 1001.816101,387.734436 1003.354004,393.690735 
	C1004.865051,399.542999 1003.041199,404.147949 997.948853,407.451263 
	C997.562439,407.701996 997.309875,408.158966 996.908997,408.618774 
	C999.658569,412.003876 1002.380981,415.355530 1005.368408,418.991272 
M991.678345,393.672852 
	C989.200012,393.224152 986.721680,392.775452 984.248657,392.327698 
	C984.248657,396.461609 984.248657,399.691742 984.248657,402.889648 
	C992.838257,403.306335 995.295715,400.481781 991.678345,393.672852 
z"/>
<path fill="#346231" opacity="1.000000" stroke="none" 
	d="
M991.971069,393.917908 
	C995.295715,400.481781 992.838257,403.306335 984.248657,402.889648 
	C984.248657,399.691742 984.248657,396.461609 984.248657,392.327698 
	C986.721680,392.775452 989.200012,393.224152 991.971069,393.917908 
z"/>
</svg>